<svg width="512" height="512" viewBox="0 0 512 512" fill="none" xmlns="http://www.w3.org/2000/svg">
<g clip-path="url(#clip0_2_5)">
<path d="M397.079 0H114.921C51.4517 0 0 51.4517 0 114.921V397.079C0 460.548 51.4517 512 114.921 512H397.079C460.548 512 512 460.548 512 397.079V114.921C512 51.4517 460.548 0 397.079 0Z" fill="#2A5AFC"/>
<path fill-rule="evenodd" clip-rule="evenodd" d="M114.566 347.777V164.4H204.658C214.409 164.286 224.076 166.219 233.034 170.076C239.944 172.902 245.963 177.541 250.458 183.502C254.952 189.464 257.755 196.528 258.572 203.949C259.953 212.331 259.221 220.926 256.443 228.955C253.365 236.61 247.637 242.904 240.305 246.689L236.758 248.64H238.354C245.033 251.104 250.927 255.318 255.419 260.84C259.912 266.362 262.838 272.99 263.892 280.03C266.392 292.018 264.833 304.497 259.458 315.5C255.872 323.234 250.406 329.946 243.56 335.027C236.714 340.107 228.706 343.393 220.265 344.585C212.53 345.893 204.699 346.546 196.855 346.536H114.566V347.777ZM156.952 315.855H196.5C200.432 315.799 204.35 315.383 208.205 314.613C212.55 314.083 216.613 312.18 219.802 309.182C222.992 306.184 225.142 302.247 225.94 297.942C226.411 294.53 226.411 291.069 225.94 287.656C225.797 283.671 224.425 279.827 222.012 276.653C219.599 273.478 216.263 271.126 212.461 269.922C208.19 268.407 203.692 267.627 199.16 267.616H156.952V315.855ZM156.952 236.581H196.855C203.001 236.793 209.101 235.451 214.59 232.679C216.473 231.723 218.129 230.373 219.445 228.721C220.761 227.068 221.706 225.152 222.215 223.102C222.942 219.473 222.942 215.736 222.215 212.107C221.963 208.884 220.694 205.824 218.59 203.37C216.486 200.915 213.657 199.193 210.511 198.451C204.724 196.914 198.763 196.139 192.776 196.145H157.307L156.952 236.581ZM409.316 286.06H313.549V291.735C313.991 295.418 315.009 299.009 316.564 302.376C318.54 306.503 321.497 310.083 325.176 312.803C328.855 315.524 333.144 317.302 337.668 317.983C342.933 319.067 348.364 319.067 353.629 317.983C357.404 317.266 360.965 315.694 364.039 313.389C367.113 311.083 369.619 308.105 371.364 304.682C371.511 304.341 371.761 304.055 372.08 303.864C372.398 303.673 372.768 303.587 373.138 303.618H407.897C407.897 305.391 407.897 307.165 406.656 308.761C404.533 315.378 400.958 321.437 396.193 326.495C386.636 337.308 373.451 344.248 359.127 346.003C347.723 347.881 336.048 347.276 324.899 344.23C313.323 341.165 302.787 335.039 294.396 326.495C287.822 319.353 283.397 310.501 281.627 300.957C277.842 284.04 278.576 266.425 283.755 249.882C286.732 239.096 292.803 229.418 301.218 222.043C309.632 214.668 320.023 209.919 331.106 208.382C345.693 205.505 360.805 206.985 374.556 212.639C387.063 217.926 397.17 227.655 402.932 239.95C406.74 248.124 408.794 257.004 408.962 266.02V285.706C409.494 285.351 409.494 285.706 409.316 286.06ZM373.847 263.36V259.636C373.26 254.91 371.399 250.432 368.462 246.684C365.526 242.935 361.624 240.055 357.176 238.354C352.27 236.449 346.986 235.721 341.747 236.226C336.736 236.313 331.861 237.873 327.729 240.711C323.598 243.549 320.394 247.54 318.515 252.187C317.386 254.9 316.438 257.684 315.677 260.522C315.616 261.645 315.616 262.77 315.677 263.892L373.847 263.36ZM306.987 193.131V171.849H380.763V192.953L306.987 193.131Z" fill="white"/>
</g>
<defs>
<clipPath id="clip0_2_5">
<rect width="512" height="512" fill="white"/>
</clipPath>
</defs>
</svg>
