<svg width="512" height="512" viewBox="0 0 512 512" fill="none" xmlns="http://www.w3.org/2000/svg">
<path d="M384 384C384 379.048 382.19 374.762 378.571 371.143C374.952 367.524 370.667 365.714 365.714 365.714C360.762 365.714 356.476 367.524 352.857 371.143C349.238 374.762 347.429 379.048 347.429 384C347.429 388.952 349.238 393.238 352.857 396.857C356.476 400.476 360.762 402.286 365.714 402.286C370.667 402.286 374.952 400.476 378.571 396.857C382.19 393.238 384 388.952 384 384ZM457.143 384C457.143 379.048 455.333 374.762 451.714 371.143C448.095 367.524 443.809 365.714 438.857 365.714C433.905 365.714 429.619 367.524 426 371.143C422.381 374.762 420.571 379.048 420.571 384C420.571 388.952 422.381 393.238 426 396.857C429.619 400.476 433.905 402.286 438.857 402.286C443.809 402.286 448.095 400.476 451.714 396.857C455.333 393.238 457.143 388.952 457.143 384ZM493.714 320V411.429C493.714 419.048 491.048 425.524 485.714 430.857C480.381 436.19 473.905 438.857 466.286 438.857H45.7143C38.0952 438.857 31.619 436.19 26.2857 430.857C20.9524 425.524 18.2857 419.048 18.2857 411.429V320C18.2857 312.381 20.9524 305.905 26.2857 300.571C31.619 295.238 38.0952 292.571 45.7143 292.571H178.571L217.143 331.429C228.19 342.095 241.143 347.429 256 347.429C270.857 347.429 283.81 342.095 294.857 331.429L333.714 292.571H466.286C473.905 292.571 480.381 295.238 485.714 300.571C491.048 305.905 493.714 312.381 493.714 320ZM400.857 157.429C404.095 165.238 402.762 171.905 396.857 177.429L268.857 305.429C265.429 309.048 261.143 310.857 256 310.857C250.857 310.857 246.571 309.048 243.143 305.429L115.143 177.429C109.238 171.905 107.905 165.238 111.143 157.429C114.381 150 120 146.286 128 146.286H201.143V18.2857C201.143 13.3333 202.952 9.04762 206.571 5.42857C210.19 1.80952 214.476 0 219.429 0H292.571C297.524 0 301.81 1.80952 305.429 5.42857C309.048 9.04762 310.857 13.3333 310.857 18.2857V146.286H384C392 146.286 397.619 150 400.857 157.429Z" fill="white"/>
</svg>
