<svg width="512" height="512" viewBox="0 0 512 512" fill="none" xmlns="http://www.w3.org/2000/svg">
<g clip-path="url(#clip0_3_12)">
<path d="M129.832 510.188C110.028 509.967 90.4108 506.335 71.8406 499.451C58.2799 494.438 46.0108 486.458 35.9304 476.095C25.5386 466.034 17.547 453.762 12.549 440.189C5.67092 421.62 2.0439 402.004 1.82714 382.203C0.306196 349.284 0 339.411 0 256C0 172.589 0.336314 162.751 1.81208 129.807C2.05514 110.014 5.68662 90.408 12.549 71.8406C17.5713 58.2776 25.5516 46.0036 35.9103 35.9103C45.9782 25.5279 58.2531 17.5436 71.8256 12.549C90.3957 5.66521 110.013 2.03308 129.817 1.81208C162.746 0.306196 172.634 0 256 0C339.366 0 349.249 0.336314 382.193 1.81208C401.991 2.05342 421.602 5.68493 440.174 12.549C453.741 17.5502 466.012 25.5317 476.085 35.9053C486.461 45.9808 494.446 58.2555 499.451 71.8256C506.336 90.3954 509.97 110.013 510.193 129.817C511.699 162.761 512.005 172.624 512.005 256.01C512.005 339.396 511.699 349.259 510.193 382.203C509.954 402.004 506.321 421.617 499.451 440.189C494.255 453.658 486.296 465.889 476.087 476.096C465.877 486.302 453.644 494.258 440.174 499.451C421.605 506.336 401.987 509.97 382.183 510.193C349.269 511.699 339.376 512.005 255.99 512.005C172.604 512.005 162.741 511.714 129.827 510.193" fill="url(#paint0_radial_3_12)"/>
<path d="M129.832 510.188C110.028 509.967 90.4108 506.335 71.8406 499.451C58.2799 494.438 46.0108 486.458 35.9304 476.095C25.5386 466.034 17.547 453.762 12.549 440.189C5.67092 421.62 2.0439 402.004 1.82714 382.203C0.306196 349.284 0 339.411 0 256C0 172.589 0.336314 162.751 1.81208 129.807C2.05514 110.014 5.68662 90.408 12.549 71.8406C17.5713 58.2776 25.5516 46.0036 35.9103 35.9103C45.9782 25.5279 58.2531 17.5436 71.8256 12.549C90.3957 5.66521 110.013 2.03308 129.817 1.81208C162.746 0.306196 172.634 0 256 0C339.366 0 349.249 0.336314 382.193 1.81208C401.991 2.05342 421.602 5.68493 440.174 12.549C453.741 17.5502 466.012 25.5317 476.085 35.9053C486.461 45.9808 494.446 58.2555 499.451 71.8256C506.336 90.3954 509.97 110.013 510.193 129.817C511.699 162.761 512.005 172.624 512.005 256.01C512.005 339.396 511.699 349.259 510.193 382.203C509.954 402.004 506.321 421.617 499.451 440.189C494.255 453.658 486.296 465.889 476.087 476.096C465.877 486.302 453.644 494.258 440.174 499.451C421.605 506.336 401.987 509.97 382.183 510.193C349.269 511.699 339.376 512.005 255.99 512.005C172.604 512.005 162.741 511.714 129.827 510.193" fill="url(#paint1_radial_3_12)"/>
<path d="M193.14 257.089C193.141 244.549 196.86 232.291 203.828 221.865C210.796 211.439 220.699 203.313 232.285 198.515C243.871 193.718 256.619 192.463 268.918 194.911C281.217 197.359 292.514 203.399 301.38 212.267C310.246 221.135 316.283 232.434 318.728 244.733C321.173 257.033 319.916 269.781 315.115 281.366C310.315 292.95 302.187 302.852 291.759 309.817C281.331 316.782 269.072 320.499 256.532 320.497C239.718 320.494 223.593 313.812 211.704 301.921C199.816 290.03 193.138 273.904 193.14 257.089ZM158.861 257.089C158.861 276.407 164.589 295.291 175.321 311.353C186.053 327.415 201.308 339.934 219.155 347.326C237.002 354.719 256.64 356.653 275.587 352.884C294.533 349.115 311.937 339.813 325.596 326.153C339.256 312.494 348.558 295.09 352.327 276.144C356.096 257.198 354.161 237.559 346.769 219.712C339.376 201.865 326.857 186.611 310.795 175.878C294.733 165.146 275.85 159.418 256.532 159.418C243.706 159.417 231.004 161.943 219.154 166.851C207.304 171.759 196.536 178.954 187.466 188.024C178.397 197.093 171.202 207.861 166.294 219.711C161.386 231.562 158.86 244.263 158.861 257.089ZM335.245 155.548C335.243 160.062 336.579 164.475 339.086 168.23C341.592 171.984 345.155 174.911 349.325 176.641C353.495 178.37 358.084 178.824 362.512 177.945C366.939 177.067 371.007 174.894 374.201 171.704C377.394 168.513 379.57 164.447 380.452 160.02C381.335 155.593 380.885 151.004 379.159 146.832C377.434 142.661 374.51 139.095 370.757 136.586C367.005 134.076 362.593 132.736 358.079 132.734C352.028 132.736 346.226 135.14 341.946 139.418C337.667 143.696 335.26 149.497 335.255 155.548M179.697 411.919C167.635 411.786 155.687 409.579 144.374 405.394C136.17 402.231 128.719 397.386 122.5 391.17C116.282 384.955 111.434 377.505 108.268 369.303C104.08 357.99 101.873 346.041 101.742 333.98C100.819 313.931 100.638 307.908 100.638 257.114C100.638 206.321 100.839 200.312 101.742 180.244C101.889 168.184 104.096 156.237 108.268 144.921C111.43 136.714 116.277 129.261 122.495 123.043C128.714 116.824 136.167 111.977 144.374 108.815C155.686 104.628 167.635 102.42 179.697 102.29C199.745 101.366 205.769 101.185 256.542 101.185C307.315 101.185 313.344 101.381 333.412 102.295C345.473 102.441 357.419 104.648 368.735 108.82C376.942 111.982 384.395 116.829 390.614 123.048C396.832 129.267 401.679 136.72 404.841 144.926C409.029 156.238 411.236 168.187 411.367 180.249C412.29 200.328 412.471 206.321 412.471 257.119C412.471 307.918 412.285 313.921 411.367 333.99C411.226 346.05 409.019 357.998 404.841 369.313C401.676 377.515 396.828 384.965 390.609 391.181C384.391 397.396 376.94 402.241 368.735 405.404C357.423 409.591 345.474 411.798 333.412 411.929C313.364 412.853 307.341 413.033 256.542 413.033C205.744 413.033 199.74 412.848 179.697 411.929M178.121 68.0408C162.338 68.3511 146.723 71.3383 131.94 76.8752C119.304 81.7612 107.827 89.2339 98.2469 98.8141C88.6667 108.394 81.194 119.871 76.308 132.508C70.7718 147.29 67.7847 162.906 67.4736 178.688C66.5349 198.967 66.3241 205.453 66.3241 257.109C66.3241 308.766 66.54 315.246 67.4736 335.531C67.7846 351.313 70.7717 366.928 76.308 381.711C81.1942 394.348 88.667 405.824 98.2472 415.404C107.827 424.984 119.304 432.457 131.94 437.343C146.724 442.878 162.339 445.865 178.121 446.178C198.41 447.102 204.885 447.327 256.542 447.327C308.199 447.327 314.679 447.112 334.964 446.178C350.746 445.866 366.361 442.879 381.144 437.343C393.78 432.457 405.257 424.984 414.837 415.404C424.417 405.824 431.89 394.348 436.776 381.711C442.32 366.93 445.307 351.314 445.611 335.531C446.534 315.236 446.745 308.766 446.745 257.109C446.745 205.453 446.529 198.972 445.611 178.688C445.3 162.906 442.313 147.29 436.776 132.508C431.89 119.873 424.419 108.398 414.842 98.8185C405.265 89.2386 393.792 81.7646 381.159 76.8752C366.377 71.3347 350.761 68.3474 334.979 68.0408C314.694 67.1122 308.214 66.8913 256.567 66.8913C204.92 66.8913 198.425 67.1072 178.131 68.0408" fill="white"/>
</g>
<defs>
<radialGradient id="paint0_radial_3_12" cx="0" cy="0" r="1" gradientUnits="userSpaceOnUse" gradientTransform="translate(33.1344 500.786) scale(650.049)">
<stop offset="0.09" stop-color="#FA8F21"/>
<stop offset="0.78" stop-color="#D82D7E"/>
</radialGradient>
<radialGradient id="paint1_radial_3_12" cx="0" cy="0" r="1" gradientUnits="userSpaceOnUse" gradientTransform="translate(354.645 484.342) scale(572.05)">
<stop offset="0.64" stop-color="#8C3AAA" stop-opacity="0"/>
<stop offset="1" stop-color="#8C3AAA"/>
</radialGradient>
<clipPath id="clip0_3_12">
<rect width="512" height="512" fill="white"/>
</clipPath>
</defs>
</svg>
