<svg width="512" height="512" viewBox="0 0 512 512" fill="none" xmlns="http://www.w3.org/2000/svg">
<g clip-path="url(#clip0_557_47)">
<path d="M502.912 258.656C502.912 125.696 393.6 17.8882 258.72 17.8882C244.512 17.8882 230.56 19.1042 216.96 21.4082C194.343 7.37717 168.248 -0.03891 141.632 0.000153529C63.392 0.000153529 2.62143e-05 62.4961 2.62143e-05 139.648C-0.0153209 164.515 6.70829 188.921 19.456 210.272C16.1606 226.189 14.4987 242.401 14.496 258.656C14.496 391.648 123.84 499.456 258.688 499.456C273.691 499.451 288.662 498.101 303.424 495.424C324.058 506.344 347.055 512.036 370.4 512C448.608 512 512 449.472 512 372.384C512 350.112 506.688 329.056 497.28 310.368C501.043 293.389 502.932 276.048 502.912 258.656Z" fill="#03A9F4"/>
<path d="M383.968 373.728C372.672 389.504 356 401.984 334.336 410.816C312.928 419.584 287.296 424.096 258.048 424.096C222.976 424.096 193.568 418.016 170.592 405.984C154.585 397.616 140.806 385.548 130.4 370.784C120 356.064 114.784 341.44 114.784 327.264C114.784 318.496 118.208 310.816 124.96 304.576C131.648 298.336 140.224 295.232 150.464 295.232C158.848 295.232 166.08 297.696 171.968 302.592C177.568 307.328 182.4 314.304 186.272 323.232C190.592 333.024 195.296 341.28 200.256 347.712C205.088 354.016 211.968 359.264 220.768 363.392C229.632 367.488 241.568 369.632 256.224 369.632C276.416 369.632 292.992 365.344 305.408 356.992C317.6 348.832 323.488 338.976 323.488 326.944C323.488 317.472 320.384 309.984 314.08 304.128C306.562 297.514 297.663 292.66 288.032 289.92C273.268 285.609 258.32 281.957 243.232 278.976C217.856 273.632 196.32 267.328 179.232 260.096C161.728 252.736 147.584 242.56 137.28 229.856C126.784 216.864 121.472 200.64 121.472 181.568C121.472 163.392 127.04 147.008 138.048 132.864C148.96 118.816 164.896 107.84 185.472 100.384C205.728 92.992 229.824 89.28 257.12 89.28C278.912 89.28 298.08 91.776 314.112 96.704C330.208 101.632 343.776 108.288 354.432 116.512C365.184 124.832 373.184 133.632 378.176 142.848C383.232 152.128 385.824 161.376 385.824 170.304C385.824 178.912 382.464 186.752 375.808 193.536C369.088 200.384 360.64 203.84 350.72 203.84C341.696 203.84 334.592 201.632 329.696 197.376C325.12 193.376 320.352 187.136 315.104 178.24C309.829 167.835 302.349 158.706 293.184 151.488C284.96 145.312 271.264 142.24 252.384 142.24C234.912 142.24 220.64 145.696 210.08 152.544C199.904 159.104 194.944 166.656 194.944 175.616C194.944 181.088 196.544 185.664 199.84 189.6C203.296 193.824 208.192 197.44 214.4 200.512C220.8 203.68 227.424 206.24 234.048 208.032C240.832 209.888 252.192 212.672 267.84 216.224C287.616 220.384 305.76 225.088 321.824 230.176C338.112 235.264 352.128 241.568 363.648 248.96C375.328 256.48 384.576 266.08 391.168 277.6C397.76 289.216 401.088 303.456 401.088 320.032C401.231 339.295 395.235 358.103 383.968 373.728Z" fill="#FAFAFA"/>
<path d="M383.968 373.728C372.672 389.504 356 401.984 334.336 410.816C312.928 419.584 287.296 424.096 258.048 424.096C222.976 424.096 193.568 418.016 170.592 405.984C154.585 397.616 140.806 385.548 130.4 370.784C120 356.064 114.784 341.44 114.784 327.264C114.784 318.496 118.208 310.816 124.96 304.576C131.648 298.336 140.224 295.232 150.464 295.232C158.848 295.232 166.08 297.696 171.968 302.592C177.568 307.328 182.4 314.304 186.272 323.232C190.592 333.024 195.296 341.28 200.256 347.712C205.088 354.016 211.968 359.264 220.768 363.392C229.632 367.488 241.568 369.632 256.224 369.632C276.416 369.632 292.992 365.344 305.408 356.992C317.6 348.832 323.488 338.976 323.488 326.944C323.488 317.472 320.384 309.984 314.08 304.128C306.562 297.514 297.663 292.66 288.032 289.92C273.268 285.609 258.32 281.957 243.232 278.976C217.856 273.632 196.32 267.328 179.232 260.096C161.728 252.736 147.584 242.56 137.28 229.856C126.784 216.864 121.472 200.64 121.472 181.568C121.472 163.392 127.04 147.008 138.048 132.864C148.96 118.816 164.896 107.84 185.472 100.384C205.728 92.992 229.824 89.28 257.12 89.28C278.912 89.28 298.08 91.776 314.112 96.704C330.208 101.632 343.776 108.288 354.432 116.512C365.184 124.832 373.184 133.632 378.176 142.848C383.232 152.128 385.824 161.376 385.824 170.304C385.824 178.912 382.464 186.752 375.808 193.536C369.088 200.384 360.64 203.84 350.72 203.84C341.696 203.84 334.592 201.632 329.696 197.376C325.12 193.376 320.352 187.136 315.104 178.24C309.829 167.835 302.349 158.706 293.184 151.488C284.96 145.312 271.264 142.24 252.384 142.24C234.912 142.24 220.64 145.696 210.08 152.544C199.904 159.104 194.944 166.656 194.944 175.616C194.944 181.088 196.544 185.664 199.84 189.6C203.296 193.824 208.192 197.44 214.4 200.512C220.8 203.68 227.424 206.24 234.048 208.032C240.832 209.888 252.192 212.672 267.84 216.224C287.616 220.384 305.76 225.088 321.824 230.176C338.112 235.264 352.128 241.568 363.648 248.96C375.328 256.48 384.576 266.08 391.168 277.6C397.76 289.216 401.088 303.456 401.088 320.032C401.231 339.295 395.235 358.103 383.968 373.728Z" fill="#FAFAFA"/>
</g>
<defs>
<clipPath id="clip0_557_47">
<rect width="512" height="512" fill="white"/>
</clipPath>
</defs>
</svg>
