<svg width="156" height="156" viewBox="0 0 156 156" fill="none" xmlns="http://www.w3.org/2000/svg">
<path fill-rule="evenodd" clip-rule="evenodd" d="M120.05 108.342C121.642 108.799 122.563 110.461 122.106 112.054C121.648 113.646 119.987 114.566 118.394 114.109C118.337 114.093 118.28 114.075 118.224 114.055C110.272 122.944 99.5794 128.972 87.8006 131.151C75.1151 133.498 62.0086 131.226 50.8534 124.746C39.6983 118.266 31.2315 108.006 26.9858 95.8242C22.9391 84.2133 22.9817 71.5873 27.0735 60.0305C26.0917 59.308 25.6122 58.0258 25.9682 56.7855C26.4254 55.193 28.087 54.2726 29.6795 54.7298C31.2721 55.1869 32.1925 56.8486 31.7353 58.4411C31.3607 59.746 30.1774 60.5996 28.8861 60.6139C24.9203 71.7775 24.873 83.9788 28.7831 95.1977C32.8792 106.95 41.0475 116.848 51.8095 123.1C62.5715 129.351 75.216 131.544 87.4543 129.28C98.7758 127.185 109.058 121.405 116.72 112.881C116.253 112.175 116.087 111.276 116.339 110.398C116.796 108.805 118.457 107.885 120.05 108.342Z" fill="#0D6EFD"/>
<path fill-rule="evenodd" clip-rule="evenodd" d="M40.9108 41.4429C41.2234 42.0784 41.3135 42.8263 41.1107 43.5627C40.6707 45.1601 39.0192 46.0984 37.4218 45.6585C35.8244 45.2186 34.8861 43.567 35.326 41.9696C35.7659 40.3722 37.4175 39.4339 39.0149 39.8738C39.2113 39.9279 39.3978 40.0004 39.573 40.0888C47.7694 31.7933 58.4521 26.3557 70.0342 24.6316C82.5003 22.776 95.2229 25.3392 105.998 31.8774C116.773 38.4156 124.921 48.5168 129.032 60.4312C132.828 71.433 132.96 83.3409 129.453 94.3847C130.59 95.0567 131.185 96.4292 130.817 97.7638C130.377 99.3612 128.726 100.299 127.128 99.8596C125.531 99.4197 124.593 97.7682 125.032 96.1708C125.367 94.9558 126.402 94.1222 127.582 93.9861C131.023 83.2818 130.915 71.725 127.233 61.052C123.267 49.5576 115.406 39.8124 105.01 33.5047C94.6153 27.1969 82.3412 24.724 70.3144 26.5143C59.133 28.1787 48.8204 33.4306 40.9108 41.4429Z" fill="#0D6EFD"/>
</svg>
