<svg width="199" height="397" viewBox="0 0 199 397" fill="none" xmlns="http://www.w3.org/2000/svg">
<path d="M174.112 95.1398L112.001 318.46C106.693 337.545 86.9179 348.714 67.8327 343.406C48.7475 338.098 37.579 318.323 42.8872 299.238L104.999 75.9173C110.307 56.8322 130.082 45.6637 149.167 50.9718C168.252 56.2799 179.421 76.0546 174.112 95.1398Z" stroke="#3876DE"/>
<path d="M189.505 129.759L141.936 290.531C137.401 305.857 121.3 314.606 105.973 310.071C90.6462 305.536 81.8977 289.435 86.4326 274.108L134.002 113.336C138.537 98.0095 154.638 89.261 169.965 93.7959C185.292 98.3309 194.04 114.432 189.505 129.759Z" stroke="#3876DE"/>
<path d="M145.068 31.3523L108.024 135.283C104.555 145.014 93.8546 150.091 84.1232 146.623C74.3922 143.154 69.3188 132.443 72.7875 122.711L91.3054 70.757L109.823 18.8031C113.292 9.07136 123.997 3.98343 133.728 7.45183C143.459 10.9204 148.536 21.621 145.068 31.3523Z" stroke="#3876DE"/>
<path d="M120.77 199.376L73.545 364.029C68.551 381.441 50.3871 391.508 32.975 386.514C15.5628 381.52 5.49593 363.356 10.49 345.944L57.7149 181.29C62.709 163.878 80.8728 153.811 98.285 158.806C115.697 163.8 125.764 181.963 120.77 199.376Z" stroke="#3876DE"/>
</svg>
