<svg width="488" height="342" viewBox="0 0 488 342" fill="none" xmlns="http://www.w3.org/2000/svg">
<g clip-path="url(#clip0_555_25)">
<path d="M0 0.336914H512V341.663H0V0.336914Z" fill="#F0F0F0"/>
<path d="M0 0.336914H512V114.112H0V0.336914Z" fill="#FF9811"/>
<path d="M0 227.888H512V341.663H0V227.888Z" fill="#6DA544"/>
<path d="M256 214.896C280.243 214.896 299.896 195.243 299.896 171C299.896 146.757 280.243 127.104 256 127.104C231.757 127.104 212.104 146.757 212.104 171C212.104 195.243 231.757 214.896 256 214.896Z" fill="#0052B4"/>
<path d="M256 198.434C271.151 198.434 283.434 186.151 283.434 171C283.434 155.849 271.151 143.566 256 143.566C240.849 143.566 228.566 155.849 228.566 171C228.566 186.151 240.849 198.434 256 198.434Z" fill="#F0F0F0"/>
<path d="M256 137.146L264.464 156.341L285.319 154.073L272.927 171L285.319 187.927L264.464 185.659L256 204.854L247.536 185.659L226.681 187.927L239.073 171L226.681 154.073L247.536 156.341L256 137.146Z" fill="#0052B4"/>
</g>
<defs>
<clipPath id="clip0_555_25">
<rect width="488" height="342" fill="white"/>
</clipPath>
</defs>
</svg>
