<svg width="512" height="512" viewBox="0 0 512 512" fill="none" xmlns="http://www.w3.org/2000/svg">
<path d="M445.011 82.7H67.022C53.7658 82.715 41.0568 87.9877 31.6833 97.3613C22.3097 106.735 17.0371 119.444 17.022 132.7V379.3C17.0371 392.556 22.3097 405.265 31.6833 414.639C41.0568 424.012 53.7658 429.285 67.022 429.3H445.01C458.266 429.285 470.975 424.012 480.349 414.639C489.722 405.265 494.995 392.556 495.01 379.3V132.7C494.995 119.444 489.723 106.735 480.35 97.361C470.976 87.9874 458.267 82.7148 445.011 82.7ZM356.111 255.932L475.011 162.614V371.352L356.111 255.932ZM67.022 102.7H445.01C452.964 102.709 460.589 105.873 466.213 111.497C471.837 117.121 475.001 124.746 475.01 132.7V137.19L282.6 288.208C275.565 293.7 266.895 296.68 257.97 296.672C249.045 296.665 240.38 293.671 233.354 288.168L37.022 137.152V132.7C37.031 124.746 40.1946 117.121 45.8187 111.497C51.4429 105.873 59.0682 102.709 67.022 102.7ZM159.46 256.56L37.022 371.755V162.384L159.46 256.56ZM445.011 409.3H67.022C61.9004 409.297 56.8648 407.983 52.3945 405.484C47.9243 402.984 44.1683 399.382 41.484 395.02L175.518 268.92L221.1 303.98C231.642 312.214 244.635 316.685 258.011 316.682C271.388 316.679 284.379 312.201 294.916 303.961L340.235 268.4L470.6 394.94C467.921 399.324 464.161 402.946 459.68 405.461C455.2 407.975 450.149 409.297 445.011 409.3Z" fill="#364F6B"/>
</svg>
