<svg width="32" height="32" viewBox="0 0 32 32" fill="none" xmlns="http://www.w3.org/2000/svg">
<path d="M28.356 3.94499C28.2754 3.88383 28.1792 3.84661 28.0784 3.83759C27.9776 3.82857 27.8762 3.84812 27.786 3.89399L3.71604 16.374C3.62313 16.424 3.54646 16.4995 3.49508 16.5916C3.44369 16.6838 3.41974 16.7887 3.42604 16.894C3.43337 16.9977 3.47022 17.0972 3.53223 17.1806C3.59425 17.2641 3.67884 17.328 3.77604 17.365L12.726 20.644V27.624C12.7257 27.7384 12.7612 27.8501 12.8275 27.9434C12.8939 28.0367 12.9878 28.1068 13.096 28.144C13.152 28.1558 13.2089 28.1628 13.266 28.165C13.3513 28.1643 13.4353 28.1441 13.5115 28.106C13.5878 28.0679 13.6543 28.0128 13.706 27.945L17.716 22.475L24.346 24.905C24.4055 24.9325 24.4705 24.9462 24.536 24.945C24.6316 24.9432 24.7249 24.9155 24.806 24.865C24.875 24.8276 24.9345 24.7748 24.9796 24.7106C25.0247 24.6464 25.0543 24.5726 25.066 24.495L28.566 4.46499C28.5835 4.36734 28.5731 4.26673 28.5359 4.17474C28.4988 4.08275 28.4364 4.00311 28.356 3.94499ZM13.116 19.634L5.30004 16.775L25.53 6.28499L13.116 19.634ZM24.116 23.675L14.216 20.045L27.2 6.07499L24.116 23.675Z" fill="white"/>
</svg>
