<svg width="41" height="47" viewBox="0 0 41 47" fill="none" xmlns="http://www.w3.org/2000/svg">
<path d="M20.4899 0.338379C17.1373 0.338379 13.2193 1.31452 10.0148 3.85249C6.81041 6.39046 4.46766 10.5845 4.46766 16.3808C4.46766 22.5136 8.31838 28.4917 11.9873 33.0762C15.6563 37.6674 19.3252 40.8786 19.3252 40.8786C19.9984 41.471 21.0015 41.471 21.6747 40.8786C21.6747 40.8786 25.3437 37.6674 29.0126 33.0762C32.6816 28.4917 36.5323 22.5136 36.5323 16.3808C36.5323 10.5778 34.1895 6.39046 30.9851 3.85249C27.7806 1.31452 23.8424 0.338379 20.4899 0.338379ZM20.4899 3.90635C23.149 3.90635 26.3602 4.72092 28.7702 6.63955C31.1938 8.55144 32.971 11.4933 32.971 16.3808C32.971 20.9316 29.7531 26.5731 26.239 30.8412C23.2567 34.463 21.8699 35.7353 20.5033 37.1019C19.2242 35.7825 17.5884 34.3283 14.7609 30.8412C11.2737 26.5461 8.0289 20.9316 8.0289 16.3808C8.0289 11.4933 9.80615 8.55144 12.2229 6.63955C14.6465 4.72092 17.8375 3.90635 20.4899 3.90635ZM20.4899 7.50125C15.5957 7.50125 11.5901 11.5203 11.5901 16.4212C11.5901 21.3153 15.5957 25.3209 20.4899 25.3209C25.3908 25.3209 29.4098 21.3153 29.4098 16.4212C29.4009 14.0582 28.4583 11.7945 26.7874 10.1236C25.1165 8.45274 22.8528 7.51011 20.4899 7.50125ZM20.4899 11.0692C23.4654 11.0692 25.8486 13.4456 25.8486 16.4212C25.8504 17.1241 25.7128 17.8205 25.4438 18.4699C25.1748 19.1194 24.7797 19.709 24.2814 20.2049C23.7831 20.7007 23.1914 21.0928 22.5406 21.3585C21.8898 21.6242 21.1928 21.7583 20.4899 21.7529C19.7887 21.7565 19.0938 21.621 18.4453 21.3543C17.7968 21.0877 17.2076 20.6951 16.7118 20.1992C16.216 19.7034 15.8234 19.1143 15.5567 18.4658C15.29 17.8173 15.1545 17.1223 15.1581 16.4212C15.1537 15.7188 15.2884 15.0225 15.5545 14.3725C15.8206 13.7225 16.2129 13.1316 16.7086 12.634C17.2043 12.1364 17.7937 11.7419 18.4427 11.4734C19.0917 11.2048 19.7875 11.0674 20.4899 11.0692ZM11.5497 36.3883C11.5114 36.3936 11.4732 36.4004 11.4353 36.4085C7.57112 36.8057 4.64269 37.3847 2.66348 38.2464C1.67387 38.6772 0.778516 39.0946 0.239955 40.2593C-0.0313791 40.8982 -0.0434507 41.6177 0.206295 42.2654C0.455379 42.878 0.872765 43.2887 1.29688 43.6118C2.99335 44.8909 5.42361 45.3958 8.73576 45.8872C12.0479 46.3787 16.1342 46.6614 20.4899 46.6614C24.8522 46.6614 28.9318 46.3787 32.244 45.8872C35.5629 45.3958 37.9998 44.8909 39.703 43.6118C40.1828 43.2769 40.5603 42.8155 40.7936 42.2789C41.0406 41.6255 41.0262 40.9022 40.7532 40.2593C40.2147 39.0879 39.3261 38.6772 38.3297 38.2396C36.3572 37.3847 33.4423 36.8057 29.5781 36.4085C27.3094 36.22 26.7641 39.5389 29.2078 39.9563C32.2978 40.2727 34.8897 40.7776 36.3842 41.3027C35.3474 41.6797 33.826 42.05 31.7189 42.3596C28.6356 42.8174 24.6974 43.1002 20.4899 43.1002C16.2891 43.1002 12.3509 42.8174 9.26759 42.3596C7.67803 42.1599 6.11129 41.8082 4.58884 41.3094C6.94015 40.625 9.35269 40.1718 11.7921 39.9563C14.1146 39.6062 13.7982 36.4085 11.5497 36.3883Z" fill="white"/>
</svg>
