<svg width="512" height="512" viewBox="0 0 512 512" fill="none" xmlns="http://www.w3.org/2000/svg">
<path d="M447.372 413.113L429.828 360.483C428.828 357.482 429.154 354.254 430.603 351.441C443.788 325.825 449.232 295.584 443.528 263.704C434.783 214.836 398.998 174.229 352.585 158.657C364.561 187.582 368.213 219.74 362.23 251.641C350.074 316.478 298.156 367.886 233.039 379.564C224.61 381.076 216.095 381.813 207.643 382.027C227.419 403.364 253.816 418.531 283.262 423.812C314.944 429.494 345.046 424.205 370.583 411.218C373.386 409.793 376.59 409.475 379.574 410.47L432.405 428.079C441.656 431.164 450.456 422.362 447.372 413.113Z" fill="#364F6B"/>
<path d="M177.16 91.4514C122.283 101.648 78.3046 146.233 68.4716 201.176C62.7676 233.055 68.2116 263.297 81.3966 288.913C82.8456 291.726 83.1716 294.954 82.1716 297.955L64.6276 350.585C61.5446 359.835 70.3436 368.636 79.5956 365.552L132.426 347.943C135.411 346.948 138.615 347.266 141.417 348.691C166.953 361.678 197.055 366.967 228.738 361.285C283.547 351.455 328.018 307.587 338.279 252.856C356.356 156.444 273.547 73.5414 177.16 91.4514ZM202.387 315.377C192.817 315.377 185.057 307.619 185.057 298.047C185.057 288.477 192.816 280.718 202.387 280.718C211.958 280.718 219.717 288.476 219.717 298.047C219.717 307.619 211.959 315.377 202.387 315.377ZM219.191 239.447L219.443 246.225C219.443 255.644 211.804 263.284 202.384 263.284C192.964 263.284 185.325 255.644 185.325 246.225V240.061C185.325 225.263 194.326 212.102 207.72 207.314C213.993 205.077 218.229 199.099 218.262 192.44C218.286 188.428 216.53 184.358 213.45 181.279C210.371 178.205 206.591 176.567 202.298 176.471C193.588 176.519 186.506 183.64 186.506 192.349C186.506 201.768 178.867 209.408 169.447 209.408C160.027 209.408 152.388 201.769 152.388 192.349C152.388 164.925 174.697 142.497 202.117 142.354C215.387 141.911 228.095 147.68 237.577 157.157C247.053 166.633 252.45 179.56 252.379 192.621C252.267 213.587 238.93 232.402 219.191 239.447Z" fill="#364F6B"/>
</svg>
