<svg width="72" height="72" viewBox="0 0 72 72" fill="none" xmlns="http://www.w3.org/2000/svg">
<path d="M27.869 68.25C27.602 68.2501 27.3376 68.1967 27.0915 68.0929C26.8454 67.9892 26.6225 67.8372 26.4361 67.646C26.2497 67.4547 26.1035 67.228 26.0061 66.9793C25.9087 66.7307 25.8621 66.465 25.869 66.198L26.064 58.751H21.049C17.227 58.751 14.498 55.601 14.498 51.73V25.593C14.498 21.82 17.227 18.75 21.049 18.75H61.186C65.008 18.75 68.499 21.819 68.499 25.593V51.729C68.499 55.6 65.009 58.75 61.186 58.75H41.762L29.034 67.875C28.6947 68.1191 28.2871 68.2503 27.869 68.25ZM21.051 22.75C19.407 22.75 18.5 23.999 18.5 25.593V51.729C18.5 53.368 19.462 54.75 21.051 54.75H28.119C28.3862 54.7496 28.6508 54.8029 28.897 54.9066C29.1433 55.0103 29.3662 55.1624 29.5526 55.3538C29.739 55.5453 29.8851 55.7722 29.9822 56.0211C30.0794 56.27 30.1255 56.5359 30.118 56.803L29.974 62.28L39.953 55.126C40.293 54.882 40.7 54.751 41.118 54.751H61.186C62.775 54.751 64.499 53.368 64.499 51.73V25.593C64.499 23.999 62.83 22.75 61.186 22.75H21.051Z" fill="#364F6B"/>
<path d="M6.68 42.151C6.208 42.151 5.926 41.985 5.545 41.647C4.082 40.352 3.5 38.651 3.5 36.729V10.593C3.5 6.82 6.229 3.75 10.051 3.75H50.188C54.01 3.75 57.501 6.819 57.501 10.593V11.75C57.501 12.2804 57.2903 12.7891 56.9152 13.1642C56.5401 13.5393 56.0314 13.75 55.501 13.75C54.9706 13.75 54.4619 13.5393 54.0868 13.1642C53.7117 12.7891 53.501 12.2804 53.501 11.75V10.593C53.501 8.999 51.832 7.75 50.188 7.75H10.051C8.407 7.75 7.5 8.999 7.5 10.593V36.729C7.5 37.495 7.6 38.124 8.197 38.653C9.024 39.385 9.006 40.651 8.273 41.477C7.877 41.922 7.232 42.151 6.68 42.151Z" fill="#364F6B"/>
<path d="M34.119 31.75H26.119C25.8538 31.75 25.5994 31.6446 25.4119 31.4571C25.2244 31.2696 25.119 31.0152 25.119 30.75C25.119 30.4848 25.2244 30.2304 25.4119 30.0429C25.5994 29.8554 25.8538 29.75 26.119 29.75H34.119C34.3842 29.75 34.6386 29.8554 34.8261 30.0429C35.0137 30.2304 35.119 30.4848 35.119 30.75C35.119 31.0152 35.0137 31.2696 34.8261 31.4571C34.6386 31.6446 34.3842 31.75 34.119 31.75ZM48.119 31.75H38.119C37.8538 31.75 37.5994 31.6446 37.4119 31.4571C37.2244 31.2696 37.119 31.0152 37.119 30.75C37.119 30.4848 37.2244 30.2304 37.4119 30.0429C37.5994 29.8554 37.8538 29.75 38.119 29.75H48.119C48.3842 29.75 48.6386 29.8554 48.8261 30.0429C49.0137 30.2304 49.119 30.4848 49.119 30.75C49.119 31.0152 49.0137 31.2696 48.8261 31.4571C48.6386 31.6446 48.3842 31.75 48.119 31.75ZM56.119 31.75H52.119C51.8538 31.75 51.5994 31.6446 51.4119 31.4571C51.2244 31.2696 51.119 31.0152 51.119 30.75C51.119 30.4848 51.2244 30.2304 51.4119 30.0429C51.5994 29.8554 51.8538 29.75 52.119 29.75H56.119C56.3842 29.75 56.6386 29.8554 56.8261 30.0429C57.0137 30.2304 57.119 30.4848 57.119 30.75C57.119 31.0152 57.0137 31.2696 56.8261 31.4571C56.6386 31.6446 56.3842 31.75 56.119 31.75ZM30.119 36.75H26.119C25.8538 36.75 25.5994 36.6446 25.4119 36.4571C25.2244 36.2696 25.119 36.0152 25.119 35.75C25.119 35.4848 25.2244 35.2304 25.4119 35.0429C25.5994 34.8554 25.8538 34.75 26.119 34.75H30.119C30.3842 34.75 30.6386 34.8554 30.8261 35.0429C31.0137 35.2304 31.119 35.4848 31.119 35.75C31.119 36.0152 31.0137 36.2696 30.8261 36.4571C30.6386 36.6446 30.3842 36.75 30.119 36.75ZM42.119 36.75H34.119C33.8538 36.75 33.5994 36.6446 33.4119 36.4571C33.2244 36.2696 33.119 36.0152 33.119 35.75C33.119 35.4848 33.2244 35.2304 33.4119 35.0429C33.5994 34.8554 33.8538 34.75 34.119 34.75H42.119C42.3842 34.75 42.6386 34.8554 42.8261 35.0429C43.0137 35.2304 43.119 35.4848 43.119 35.75C43.119 36.0152 43.0137 36.2696 42.8261 36.4571C42.6386 36.6446 42.3842 36.75 42.119 36.75ZM56.119 36.75H46.119C45.8538 36.75 45.5994 36.6446 45.4119 36.4571C45.2244 36.2696 45.119 36.0152 45.119 35.75C45.119 35.4848 45.2244 35.2304 45.4119 35.0429C45.5994 34.8554 45.8538 34.75 46.119 34.75H56.119C56.3842 34.75 56.6386 34.8554 56.8261 35.0429C57.0137 35.2304 57.119 35.4848 57.119 35.75C57.119 36.0152 57.0137 36.2696 56.8261 36.4571C56.6386 36.6446 56.3842 36.75 56.119 36.75ZM36.119 42.75H26.119C25.8538 42.75 25.5994 42.6446 25.4119 42.4571C25.2244 42.2696 25.119 42.0152 25.119 41.75C25.119 41.4848 25.2244 41.2304 25.4119 41.0429C25.5994 40.8554 25.8538 40.75 26.119 40.75H36.119C36.3842 40.75 36.6386 40.8554 36.8261 41.0429C37.0137 41.2304 37.119 41.4848 37.119 41.75C37.119 42.0152 37.0137 42.2696 36.8261 42.4571C36.6386 42.6446 36.3842 42.75 36.119 42.75ZM50.119 42.75H40.119C39.8538 42.75 39.5994 42.6446 39.4119 42.4571C39.2244 42.2696 39.119 42.0152 39.119 41.75C39.119 41.4848 39.2244 41.2304 39.4119 41.0429C39.5994 40.8554 39.8538 40.75 40.119 40.75H50.119C50.3842 40.75 50.6386 40.8554 50.8261 41.0429C51.0137 41.2304 51.119 41.4848 51.119 41.75C51.119 42.0152 51.0137 42.2696 50.8261 42.4571C50.6386 42.6446 50.3842 42.75 50.119 42.75ZM56.119 42.75H54.119C53.8538 42.75 53.5994 42.6446 53.4119 42.4571C53.2244 42.2696 53.119 42.0152 53.119 41.75C53.119 41.4848 53.2244 41.2304 53.4119 41.0429C53.5994 40.8554 53.8538 40.75 54.119 40.75H56.119C56.3842 40.75 56.6386 40.8554 56.8261 41.0429C57.0137 41.2304 57.119 41.4848 57.119 41.75C57.119 42.0152 57.0137 42.2696 56.8261 42.4571C56.6386 42.6446 56.3842 42.75 56.119 42.75ZM30.119 47.75H26.119C25.8538 47.75 25.5994 47.6446 25.4119 47.4571C25.2244 47.2696 25.119 47.0152 25.119 46.75C25.119 46.4848 25.2244 46.2304 25.4119 46.0429C25.5994 45.8554 25.8538 45.75 26.119 45.75H30.119C30.3842 45.75 30.6386 45.8554 30.8261 46.0429C31.0137 46.2304 31.119 46.4848 31.119 46.75C31.119 47.0152 31.0137 47.2696 30.8261 47.4571C30.6386 47.6446 30.3842 47.75 30.119 47.75ZM41.119 47.75H34.119C33.8538 47.75 33.5994 47.6446 33.4119 47.4571C33.2244 47.2696 33.119 47.0152 33.119 46.75C33.119 46.4848 33.2244 46.2304 33.4119 46.0429C33.5994 45.8554 33.8538 45.75 34.119 45.75H41.119C41.3842 45.75 41.6386 45.8554 41.8261 46.0429C42.0137 46.2304 42.119 46.4848 42.119 46.75C42.119 47.0152 42.0137 47.2696 41.8261 47.4571C41.6386 47.6446 41.3842 47.75 41.119 47.75Z" fill="#364F6B"/>
</svg>
