<svg width="40" height="40" viewBox="0 0 40 40" fill="none" xmlns="http://www.w3.org/2000/svg">
<g clip-path="url(#clip0_554_11)">
<path d="M39.7015 9.64994L38.1765 6.37494C37.9872 5.9724 37.7117 5.61639 37.3696 5.33213C37.0274 5.04786 36.6269 4.84228 36.1965 4.72994C31.3515 3.40994 25.794 2.60244 20.064 2.50244C14.4167 2.59011 8.80175 3.37438 3.34652 4.83744C2.93402 4.95744 2.21402 5.56244 1.83402 6.35994L0.301523 9.65245C0.104805 10.0576 0.00224813 10.502 0.00152344 10.9524V13.1274L-0.000976562 13.2299C-0.000976562 14.2099 0.794023 15.0049 1.77402 15.0049L1.85652 15.0024H8.15152C8.64759 14.9907 9.11938 14.7853 9.46603 14.4303C9.81267 14.0752 10.0067 13.5987 10.0065 13.1024L10.0015 12.9699V10.8449C10.0017 10.5733 10.07 10.306 10.2001 10.0675C10.3303 9.82908 10.5181 9.62706 10.7465 9.47994C13.6036 7.9624 16.8293 7.27725 20.0565 7.50244C23.2767 7.2852 26.494 7.96725 29.349 9.47244C29.7065 9.71995 30.004 10.2224 30.004 10.7949V12.9749C29.9871 13.2304 30.022 13.4867 30.1066 13.7283C30.1911 13.9699 30.3237 14.192 30.4962 14.3811C30.6688 14.5703 30.8778 14.7226 31.1107 14.8289C31.3436 14.9353 31.5956 14.9934 31.8515 14.9999H38.154L38.2315 15.0024C38.7023 15.0024 39.1537 14.8154 39.4866 14.4826C39.8195 14.1497 40.0065 13.6982 40.0065 13.2274L40.004 13.1199V10.9499C40.0025 10.4932 39.8973 10.0427 39.6965 9.63244L39.7015 9.64994Z" fill="#364F6B"/>
<path d="M30 20.75C28.373 18.665 27.4919 16.0947 27.4975 13.45L27.5 13.24V12.5H25V15H15V12.5H12.5V13.325L12.5025 13.525C12.5061 16.1803 11.6178 18.7599 9.98 20.85L2.5 30V37.5H37.5V30L30 20.75ZM20 32.5C18.0109 32.5 16.1032 31.7098 14.6967 30.3033C13.2902 28.8968 12.5 26.9891 12.5 25C12.5 23.0109 13.2902 21.1032 14.6967 19.6967C16.1032 18.2902 18.0109 17.5 20 17.5C21.9891 17.5 23.8968 18.2902 25.3033 19.6967C26.7098 21.1032 27.5 23.0109 27.5 25C27.5 26.9891 26.7098 28.8968 25.3033 30.3033C23.8968 31.7098 21.9891 32.5 20 32.5Z" fill="#364F6B"/>
<path d="M24.9999 25C25.015 25.6658 24.8969 26.328 24.6525 26.9476C24.4081 27.5671 24.0425 28.1316 23.5769 28.6079C23.1114 29.0842 22.5554 29.4627 21.9416 29.7212C21.3278 29.9796 20.6685 30.1129 20.0025 30.113C19.3365 30.1132 18.6771 29.9803 18.0632 29.7222C17.4492 29.464 16.893 29.0858 16.4273 28.6097C15.9615 28.1337 15.5955 27.5693 15.3508 26.9499C15.1062 26.3304 14.9877 25.6684 15.0024 25.0025C15.0313 23.6961 15.5705 22.4529 16.5045 21.5391C17.4386 20.6252 18.6932 20.1134 20 20.113C21.3067 20.1127 22.5616 20.624 23.4961 21.5373C24.4306 22.4507 24.9704 23.6936 24.9999 25Z" fill="#364F6B"/>
</g>
<defs>
<clipPath id="clip0_554_11">
<rect width="40" height="40" fill="white"/>
</clipPath>
</defs>
</svg>
