<svg width="45" height="47" viewBox="0 0 45 47" fill="none" xmlns="http://www.w3.org/2000/svg">
<path d="M32.9765 30.741C32.5846 30.3302 32.1189 30.0043 31.6061 29.7819C31.0933 29.5595 30.5435 29.445 29.9882 29.445C29.433 29.445 28.8832 29.5595 28.3704 29.7819C27.8576 30.0043 27.3919 30.3302 27 30.741L24.9609 32.8707C22.6651 31.3488 20.538 29.5656 18.6187 27.5538C16.6965 25.5454 14.9896 23.3243 13.5281 20.9297L15.5671 18.8C15.9604 18.3907 16.2725 17.9043 16.4854 17.3687C16.6984 16.8331 16.808 16.2589 16.808 15.679C16.808 15.099 16.6984 14.5248 16.4854 13.9892C16.2725 13.4536 15.9604 12.9672 15.5671 12.5579L11.5875 8.41598C11.2011 8.00384 10.7393 7.67704 10.2295 7.455C9.71981 7.23297 9.17254 7.12023 8.62027 7.12348C8.06407 7.12206 7.51309 7.23552 6.99904 7.45734C6.48498 7.67916 6.018 8.00495 5.62495 8.41598L3.71245 10.3988C2.80088 11.4225 2.12054 12.6465 1.72144 13.9809C1.32233 15.3153 1.21462 16.7261 1.4062 18.1097C1.8562 23.6175 5.31558 30.2416 10.6453 35.8229C15.975 41.4041 22.3875 45.0025 27.6609 45.5313C28.0544 45.5533 28.4487 45.5533 28.8421 45.5313C29.9773 45.5811 31.1106 45.3937 32.1755 44.98C33.2404 44.5664 34.2155 43.9349 35.0437 43.1225L36.9421 41.125C37.3357 40.7145 37.6476 40.2268 37.86 39.6899C38.0724 39.153 38.181 38.5775 38.1796 37.9966C38.1828 37.4198 38.0748 36.8482 37.8622 36.3158C37.6496 35.7834 37.3367 35.3011 36.9421 34.8975L32.9765 30.741ZM34.9593 39.0541L33.0468 41.0369C32.3397 41.6524 31.5142 42.1021 30.6262 42.3555C29.7383 42.6089 28.8085 42.6601 27.9 42.5057C23.3296 42.0944 17.5078 38.7163 12.6984 33.6932C7.88902 28.67 4.65464 22.6335 4.2187 17.86C4.06705 16.9111 4.11424 15.9391 4.35702 15.0111C4.59979 14.083 5.03238 13.221 5.62495 12.4844L7.60777 10.4869C7.73917 10.3508 7.895 10.2431 8.06634 10.17C8.23767 10.0969 8.42113 10.0599 8.6062 10.061C8.79128 10.0599 8.97474 10.0969 9.14607 10.17C9.31741 10.2431 9.47324 10.3508 9.60464 10.4869L13.5843 14.6875C13.8462 14.9627 13.9933 15.335 13.9933 15.723C13.9933 16.111 13.8462 16.4833 13.5843 16.7585L10.7718 19.696C10.5517 19.9247 10.4103 20.2231 10.3696 20.5446C10.3289 20.866 10.3912 21.1926 10.5468 21.4732C12.2307 24.4671 14.2772 27.2217 16.6359 29.6688C18.9788 32.1323 21.6162 34.2698 24.4828 36.0285C24.7514 36.191 25.0641 36.2561 25.3719 36.2136C25.6797 36.171 25.9653 36.0233 26.1843 35.7935L28.9968 32.856C29.2603 32.5824 29.6167 32.4289 29.9882 32.4289C30.3597 32.4289 30.7162 32.5824 30.9796 32.856L34.9593 37.0125C35.0897 37.1498 35.1928 37.3125 35.2628 37.4915C35.3327 37.6704 35.3682 37.8621 35.3671 38.0554C35.3583 38.4305 35.2124 38.7878 34.9593 39.0541ZM37.4062 7.91661C35.4519 5.86766 33.1286 4.24303 30.5702 3.13639C28.0118 2.02975 25.269 1.46299 22.5 1.46879C22.127 1.46879 21.7693 1.62354 21.5056 1.89898C21.2419 2.17443 21.0937 2.54801 21.0937 2.93754C21.0937 3.32708 21.2419 3.70066 21.5056 3.97611C21.7693 4.25155 22.127 4.40629 22.5 4.40629C24.9138 4.4062 27.3037 4.90538 29.5318 5.87502C31.7599 6.84466 33.7821 8.26556 35.4817 10.0557C37.1814 11.8459 38.5247 13.9699 39.4343 16.3051C40.3438 18.6404 40.8016 21.1406 40.7812 23.6616C40.7812 24.0511 40.9294 24.4247 41.1931 24.7002C41.4568 24.9756 41.8145 25.1304 42.1875 25.1304C42.5604 25.1304 42.9181 24.9756 43.1818 24.7002C43.4455 24.4247 43.5937 24.0511 43.5937 23.6616C43.6206 20.7387 43.087 17.8397 42.0244 15.1356C40.9617 12.4315 39.3915 9.97691 37.4062 7.91661Z" fill="white"/>
<path d="M29.4047 16.3178C30.2028 17.1463 30.8342 18.1331 31.2616 19.2203C31.6891 20.3074 31.904 21.4729 31.8938 22.6481C31.8938 23.0376 32.042 23.4112 32.3057 23.6867C32.5694 23.9621 32.9271 24.1168 33.3 24.1168C33.673 24.1168 34.0307 23.9621 34.2944 23.6867C34.5581 23.4112 34.7063 23.0376 34.7063 22.6481C34.7249 21.0927 34.4477 19.549 33.8906 18.1064C33.3336 16.6639 32.5079 15.3512 31.4614 14.2445C30.4149 13.1378 29.1684 12.2591 27.7942 11.6595C26.4201 11.0598 24.9456 10.7511 23.4563 10.7512C23.0833 10.7512 22.7257 10.906 22.4619 11.1814C22.1982 11.4569 22.05 11.8304 22.05 12.22C22.05 12.6095 22.1982 12.9831 22.4619 13.2585C22.7257 13.534 23.0833 13.6887 23.4563 13.6887C24.5645 13.6974 25.6603 13.9341 26.6809 14.3852C27.7016 14.8363 28.6271 15.493 29.4047 16.3178Z" fill="white"/>
</svg>
