<svg width="120" height="136" viewBox="0 0 120 136" fill="none" xmlns="http://www.w3.org/2000/svg">
<g clip-path="url(#clip0_539_8)">
<path d="M10.8648 108.692C35.5104 117.68 65.3476 126.716 90.4022 113.991C115.923 101.024 120.975 72.8613 119.223 48.9418C118.312 36.4951 114.517 23.9689 107.227 13.1505C104.082 8.48236 97.9719 5.83508 92.0249 8.24487C86.8568 10.3387 83.4129 16.8258 86.5736 21.524C89.1274 25.3175 91.7978 30.3164 93.0798 33.8162C93.4775 34.887 94.379 37.9387 94.8263 39.7595C95.3776 42.0143 95.8164 44.2912 96.1457 46.5827C96.8148 51.1859 96.9422 54.2214 96.7079 59.4672C96.4895 64.3761 95.8799 69.2757 94.8752 74.1064C94.8027 74.4663 94.7664 74.6467 94.7587 74.7106C94.6537 75.1269 94.5289 75.546 94.4124 75.9669C94.0427 77.2566 93.6367 78.5445 93.1726 79.812C92.4664 81.7613 91.1408 84.7616 90.4833 85.9505C88.4247 89.6817 85.4277 92.5599 81.4874 95.2836C81.0643 95.5806 80.9124 95.699 80.8746 95.7443C80.7984 95.7702 80.5974 95.847 80.1661 96.0496C79.0028 96.5918 77.8456 97.1191 76.6401 97.5808C75.6014 97.9795 74.55 98.3413 73.4858 98.6651C73.4744 98.6697 73.4662 98.6669 73.4631 98.6743C72.5839 98.8908 71.6859 99.0851 70.7968 99.2572C68.5573 99.6939 66.2801 99.9927 63.9871 100.17C63.8497 100.184 62.9955 100.226 62.5332 100.252C62.1949 100.251 61.7583 100.26 61.7583 100.26C60.414 100.235 59.0719 100.228 57.729 100.153C44.245 99.4043 31.4427 94.5897 18.5807 89.8963C13.0416 87.8757 5.75014 90.8104 3.97664 95.8183C2.07463 101.185 4.92465 106.525 10.8648 108.692Z" fill="#770FFB"/>
</g>
<defs>
<clipPath id="clip0_539_8">
<rect width="120" height="136" fill="white"/>
</clipPath>
</defs>
</svg>
