<svg width="136" height="137" viewBox="0 0 136 137" fill="none" xmlns="http://www.w3.org/2000/svg">
<g clip-path="url(#clip0_539_8)">
<path d="M128.079 47.0457C125.986 43.4995 121.812 42.8779 118.305 44.5095C109.382 48.655 100.541 52.9615 91.783 57.4233C90.159 52.1512 88.624 46.8514 87.172 41.5294C93.848 38.4994 100.541 35.5137 107.261 32.5946C110.795 31.0574 111.612 25.9407 109.823 22.9162C107.692 19.309 103.594 18.8373 100.049 20.3801C94.549 22.772 89.066 25.2137 83.594 27.6777C82.18 21.8674 80.866 16.0292 79.657 10.1689C78.884 6.42298 74.411 4.26423 70.871 5.22985C66.939 6.30091 65.106 10.1745 65.879 13.9315C67.243 20.5521 68.751 27.1505 70.374 33.7101C62.571 37.3228 54.802 41.0022 47.071 44.7592C45.801 39.1376 44.586 33.5048 43.438 27.8553C42.676 24.1094 38.181 21.9506 34.652 22.9162C30.715 23.9873 28.898 27.8609 29.66 31.6179C30.997 38.1719 32.416 44.7093 33.912 51.23C25.397 55.4754 16.921 59.7985 8.49399 64.2215C5.08699 66.0084 4.04401 70.7034 5.93201 73.8999C7.95301 77.3184 12.282 78.2341 15.706 76.4361C22.868 72.679 30.063 68.9885 37.286 65.3591C38.904 71.8688 40.61 78.3562 42.383 84.8214C34.481 89.5774 26.656 94.461 18.926 99.4833C15.701 101.575 14.342 105.743 16.363 109.162C18.235 112.336 22.896 113.807 26.137 111.698C32.83 107.353 39.589 103.113 46.409 98.9672C49.054 107.963 51.848 116.914 54.808 125.81C56.011 129.44 59.744 131.798 63.593 130.749C67.182 129.773 69.794 125.688 68.585 122.048C65.211 111.903 62.047 101.692 59.076 91.4198C67.111 86.736 75.228 82.1909 83.417 77.7846C86.99 88.1345 90.894 98.3734 95.124 108.485C96.598 112.014 99.862 114.528 103.909 113.424C107.272 112.508 110.387 108.274 108.901 104.722C104.268 93.6507 100.027 82.424 96.184 71.0641C105.859 66.0861 115.633 61.2969 125.506 56.7129C129.007 55.1036 129.901 50.1312 128.079 47.0457ZM55.144 77.3018C53.493 71.1695 51.903 65.0262 50.395 58.8551C58.237 55.0203 66.111 51.2578 74.024 47.5673C75.565 53.1113 77.199 58.6276 78.922 64.1216C70.921 68.3837 62.991 72.7734 55.144 77.3018Z" fill="#1BBAFF"/>
</g>
<defs>
<clipPath id="clip0_539_8">
<rect width="136" height="137" fill="white"/>
</clipPath>
</defs>
</svg>
