<svg width="24" height="24" viewBox="0 0 24 24" fill="none" xmlns="http://www.w3.org/2000/svg">
<path d="M17.9198 14.3202C17.6598 14.5702 17.5398 14.9392 17.6008 15.2902L18.4898 20.2102C18.5608 20.6302 18.3908 21.0492 18.0398 21.2902C17.6998 21.5402 17.2498 21.5702 16.8698 21.3702L12.4408 19.0602C12.2798 18.9802 12.1098 18.9292 11.9408 18.9292H11.6698C11.5698 18.9392 11.4808 18.9802 11.3998 19.0192L6.96983 21.3402C6.74983 21.4502 6.49983 21.4902 6.25983 21.4502C5.65983 21.3302 5.27083 20.7692 5.36983 20.1792L6.25983 15.2592C6.31983 14.9002 6.19983 14.5402 5.94083 14.2802L2.32983 10.7802C2.02983 10.4802 1.91983 10.0492 2.06083 9.65024C2.19083 9.25924 2.52983 8.96924 2.94983 8.90024L7.91983 8.17924C8.29983 8.13924 8.62983 7.91024 8.79983 7.57024L10.9898 3.08024C11.0398 2.98024 11.1098 2.88924 11.1908 2.81024L11.2798 2.74024C11.3198 2.68924 11.3798 2.65024 11.4408 2.61024L11.5498 2.57024L11.7198 2.50024H12.1408C12.5208 2.54024 12.8508 2.76924 13.0208 3.09924L15.2398 7.57024C15.3998 7.90024 15.7098 8.12024 16.0698 8.17924L21.0398 8.90024C21.4598 8.96024 21.8108 9.25024 21.9498 9.65024C22.0798 10.0492 21.9698 10.4902 21.6598 10.7802L17.9198 14.3202Z" fill="white"/>
</svg>
