<svg width="24" height="24" viewBox="0 0 24 24" fill="none" xmlns="http://www.w3.org/2000/svg">
<path fill-rule="evenodd" clip-rule="evenodd" d="M1 12C1 5.92487 5.92487 1 12 1C18.0751 1 23 5.92487 23 12C23 18.0751 18.0751 23 12 23C5.92487 23 1 18.0751 1 12ZM12 4.5C10.6193 4.5 9.5 5.61929 9.5 7C9.5 8.38071 10.6193 9.5 12 9.5C10.6193 9.5 9.5 10.6193 9.5 12C9.5 10.6193 8.38071 9.5 7 9.5C5.61929 9.5 4.5 10.6193 4.5 12C4.5 13.3807 5.61929 14.5 7 14.5C8.38071 14.5 9.5 13.3807 9.5 12C9.5 13.3807 10.6193 14.5 12 14.5C10.6193 14.5 9.5 15.6193 9.5 17C9.5 18.3807 10.6193 19.5 12 19.5C13.3807 19.5 14.5 18.3807 14.5 17C14.5 15.6193 13.3807 14.5 12 14.5C13.3807 14.5 14.5 13.3807 14.5 12C14.5 13.3807 15.6193 14.5 17 14.5C18.3807 14.5 19.5 13.3807 19.5 12C19.5 10.6193 18.3807 9.5 17 9.5C15.6193 9.5 14.5 10.6193 14.5 12C14.5 10.6193 13.3807 9.5 12 9.5C13.3807 9.5 14.5 8.38071 14.5 7C14.5 5.61929 13.3807 4.5 12 4.5Z" fill="black"/>
</svg>
