<svg width="512" height="512" viewBox="0 0 512 512" fill="none" xmlns="http://www.w3.org/2000/svg">
<g clip-path="url(#clip0_101_4)">
<path d="M26.302 284.096L254.126 85.184L481.95 284.096C485.142 286.823 489.273 288.172 493.446 287.85C497.619 287.528 501.498 285.562 504.241 282.378C506.984 279.193 508.37 275.047 508.098 270.84C507.826 266.633 505.918 262.703 502.788 259.904L264.545 51.904C261.657 49.3822 257.964 47.994 254.142 47.994C250.32 47.994 246.626 49.3822 243.738 51.904L158.829 126.016V96C158.829 87.513 155.482 79.3737 149.525 73.3725C143.567 67.3714 135.488 64 127.063 64C118.638 64 110.558 67.3714 104.601 73.3725C98.6439 79.3737 95.2972 87.513 95.2972 96V181.472L5.46371 259.904C2.28683 262.692 0.336043 266.635 0.0383689 270.87C-0.259305 275.104 1.12038 279.284 3.87543 282.496C9.65679 289.152 19.663 289.888 26.302 284.096ZM190.594 352H317.657V512H412.954C421.379 512 429.459 508.629 435.416 502.627C441.373 496.626 444.72 488.487 444.72 480V323.168C444.72 313.568 440.464 304.512 433.094 298.432L274.265 167.264C268.591 162.562 261.473 159.992 254.126 159.992C246.779 159.992 239.66 162.562 233.986 167.264L75.1577 298.432C71.5187 301.427 68.5873 305.201 66.5763 309.48C64.5653 313.758 63.5252 318.434 63.5315 323.168V480C63.5315 488.487 66.8782 496.626 72.8354 502.627C78.7927 508.629 86.8724 512 95.2972 512H190.594V352Z" fill="#253857"/>
</g>
<defs>
<clipPath id="clip0_101_4">
<rect width="512" height="512" fill="white"/>
</clipPath>
</defs>
</svg>
